<svg xmlns="http://www.w3.org/2000/svg" xmlns:xlink="http://www.w3.org/1999/xlink" viewBox="0 0 22.59 24.14"><defs><style>.a{stroke:#fff;stroke-miterlimit:10;stroke-width:0.28px;fill:url(#a);}.b{fill:#0e7c59;}.c{fill:#a5d6b0;}</style><radialGradient id="a" cx="12.19" cy="12.33" fx="27.09552980495412" r="15.08" gradientTransform="translate(-7.74 7.26) rotate(-39.36) scale(1 1.34)" gradientUnits="userSpaceOnUse"><stop offset="0.29" stop-color="#a5d6b0"/><stop offset="0.32" stop-color="#9bd0aa"/><stop offset="0.56" stop-color="#5fac87"/><stop offset="0.76" stop-color="#33926e"/><stop offset="0.91" stop-color="#18825f"/><stop offset="1" stop-color="#0e7c59"/></radialGradient></defs><path class="a" d="M11,.67v9.84a.24.24,0,0,1-.24.24H7.34a.24.24,0,0,1-.24-.24V7.8H5v2.71a.24.24,0,0,1-.24.24H1.27A.24.24,0,0,1,1,10.51V.67A.24.24,0,0,1,1.27.43H4.71A.24.24,0,0,1,5,.67V4.51H7.1V.67A.24.24,0,0,1,7.34.43h3.43A.24.24,0,0,1,11,.67Zm-.25,12.07H7.35A.26.26,0,0,0,7.1,13v4.11L5,12.88a.26.26,0,0,0-.23-.14H1.29A.26.26,0,0,0,1,13V23.45a.26.26,0,0,0,.26.25h3.4A.26.26,0,0,0,5,23.45V19.31L7.1,23.68v0h3.66a.25.25,0,0,0,.25-.25V13A.26.26,0,0,0,10.76,12.74Zm12.53,5a.29.29,0,0,0-.3-.26H18.08a.21.21,0,0,0-.23.24v1.89a.29.29,0,0,0,.3.28h1.58c-.33.88-1.11.94-2,1a2.76,2.76,0,0,1-2.54-2.92A2.68,2.68,0,0,1,17.61,15a2.15,2.15,0,0,1,2,1.14.29.29,0,0,0,.27.18l2.71,0a.29.29,0,0,0,.28-.33c-.46-2.67-2.21-4.13-5.4-4.13-3.45,0-5.68,2.69-5.62,6.39a5.89,5.89,0,0,0,5.91,6c3.67,0,6-2.85,5.51-6.46C23.27,17.65,23.3,17.9,23.29,17.77Z" transform="translate(-0.89 -0.24)"/><path class="b" d="M21.74,11.67a2.27,2.27,0,0,1-.78.79,5.34,5.34,0,0,1-.9.52,7.52,7.52,0,0,1-.76.3,6.07,6.07,0,0,1-.79.21c-.22,0-.46.09-.7.12a6.51,6.51,0,0,1-.77,0c-.22,0-.44,0-.67,0s-.51-.06-.77-.11L15,13.36a4.23,4.23,0,0,1-.68-.24,5.18,5.18,0,0,1-.6-.26,6.61,6.61,0,0,1-.68-.39L16.75.24l.38.87.4.93.45,1,.41.92.48,1.11.4.92h0l.46,1h0l.4.93h0l.43,1h0l.4.92.45,1h0Z" transform="translate(-0.89 -0.24)"/><path class="c" d="M17.53,2,14.29,13.12a5.18,5.18,0,0,1-.6-.26L17.13,1.11Z" transform="translate(-0.89 -0.24)"/><path class="c" d="M18.39,4,15.6,13.52,15,13.36,18,3.07Z" transform="translate(-0.89 -0.24)"/><path class="c" d="M19.27,6h0L17,13.65c-.22,0-.44,0-.67,0l2.5-8.53Z" transform="translate(-0.89 -0.24)"/><path class="c" d="M20.13,8h0l-1.62,5.51c-.22,0-.46.09-.7.12l1.92-6.56Z" transform="translate(-0.89 -0.24)"/><polygon class="c" points="19.16 12.74 20.07 9.65 19.66 8.73 18.4 13.04 19.16 12.74"/><path class="c" d="M21.74,11.67a2.27,2.27,0,0,1-.78.79l.45-1.54Z" transform="translate(-0.89 -0.24)"/></svg>